#!OML:ASF I:\Actors\actors\Patient Classification 2\Patient 1\Session 1\actor1.ASF
:FULLY-SPECIFIED
:DEGREES
406
root -1.01718 17.9472 5.83582 -9.35744 14.4587 -5.73281
lowerback 13.4903 2.56438 0.244461
upperback 1.24262 3.32825 -1.82765
thorax -6.12109 1.60663 -2.68111
lowerneck -19.9033 -2.30808 -4.51087
upperneck -16.8699 -2.37516 -5.67117
head -2.28662 -0.73925 -1.19745
rclavicle -5.46658e-016 -1.59028e-015
rhumerus 29.6423 -8.16038 -65.7705
rradius 72.4161
rwrist 22.2145
rhand -31.7973 -34.8647
rfingers 7.12502
rthumb -5.05297 -64.7844
lclavicle -5.46658e-016 -1.59028e-015
lhumerus 42.0815 -44.5779 67.8229
lradius 142.128
lwrist 53.8047
lhand -22.2437 -26.2666
lfingers 7.12502
lthumb 4.17345 3.67231
rfemur 6.74252 -10.5189 18.6234
rtibia 27.9492
rfoot -27.1861 -6.37759
rtoes -21.755
lfemur -9.7498 -9.14554 -7.64148
ltibia 41.2756
lfoot -23.7334 -2.92968
ltoes -59.4533
407
root -1.02063 17.9197 5.74019 -9.50278 14.7791 -5.95977
lowerback 14.6551 2.5435 0.720212
upperback 1.79396 3.36944 -1.90404
thorax -6.14507 1.61785 -3.08327
lowerneck -19.8286 -2.21099 -4.37787
upperneck -16.2596 -2.24868 -5.69778
head -2.08279 -0.707522 -1.21796
rclavicle -9.51185e-014 6.36111e-015
rhumerus 28.8885 -6.99873 -65.261
rradius 70.3021
rwrist 15.7252
rhand -24.3764 -33.6339
rfingers 7.12502
rthumb 2.11387 -63.6031
lclavicle -9.51185e-014 6.36111e-015
lhumerus 41.5625 -44.7896 67.9949
lradius 142.072
lwrist 53.5792
lhand -22.7002 -26.3662
lfingers 7.12502
lthumb 3.73262 3.58087
rfemur 6.3493 -10.9341 18.785
rtibia 28.3857
rfoot -27.598 -6.39817
rtoes -22.0773
lfemur -10.4814 -9.23127 -7.43689
ltibia 41.9486
lfoot -23.6742 -3.13067
ltoes -59.492
408
root -1.02378 17.8842 5.6413 -9.53238 15.1203 -6.19867
lowerback 15.5923 2.55869 1.07641
upperback 2.45466 3.46009 -1.81198
thorax -5.93515 1.66563 -3.23295
lowerneck -19.6565 -2.12096 -4.35992
upperneck -15.8142 -2.14055 -5.93192
head -1.95535 -0.668949 -1.28896
rclavicle -1.83876e-014 1.11319e-014
rhumerus 28.2458 -5.67557 -64.3365
rradius 67.8129
rwrist 10.1412
rhand -17.8946 -32.9812
rfingers 7.12502
rthumb 8.37208 -62.7952
lclavicle -1.83876e-014 1.11319e-014
lhumerus 41.1402 -44.9036 68.2853
lradius 142.026
lwrist 53.4408
lhand -23.1474 -26.552
lfingers 7.12502
lthumb 3.30078 3.40215
rfemur 5.67772 -11.2822 19.0023
rtibia 29.1105
rfoot -28.2188 -6.28035
rtoes -21.6108
lfemur -11.4517 -9.33373 -7.21255
ltibia 42.7818
lfoot -23.6316 -3.32868
ltoes -59.4092
409
root -1.02872 17.8447 5.53822 -9.40101 15.4251 -6.38252
lowerback 16.5215 2.57207 1.44204
upperback 3.04886 3.54901 -1.80608
thorax -5.77931 1.71253 -3.48294
lowerneck -19.4575 -2.00562 -4.23832
upperneck -15.3402 -2.01804 -6.17479
head -1.82301 -0.630029 -1.37902
rclavicle 2.5842e-015 3.18055e-015
rhumerus 27.3799 -4.15697 -63.3466
rradius 65.5868
rwrist 4.11461
rhand -11.2401 -35.1407
rfingers 7.12502
rthumb 14.7891 -64.593
lclavicle 2.5842e-015 3.18055e-015
lhumerus 40.5738 -45.1017 68.476
lradius 142.009
lwrist 53.3236
lhand -23.6009 -26.8669
lfingers 7.12502
lthumb 2.86276 3.09359
rfemur 4.63368 -11.4877 19.2306
rtibia 30.1675
rfoot -28.8017 -6.2127
rtoes -21.1988
lfemur -12.6348 -9.48188 -7.0322
ltibia 43.7033
lfoot -23.6217 -3.46045
ltoes -59.3052
410
root -1.03407 17.8011 5.43337 -9.13701 15.6906 -6.4838
lowerback 17.4164 2.62303 1.72402
upperback 3.60213 3.67476 -1.83605
thorax -5.64201 1.78009 -3.73296
lowerneck -19.1378 -1.85514 -3.97518
upperneck -14.9267 -1.89289 -6.52975
head -1.73162 -0.592389 -1.52939
rclavicle -5.96354e-016 -4.77083e-015
rhumerus 26.2557 -2.09904 -62.0445
rradius 63.2789
rwrist 0.0751329
rhand -6.06558 -36.2142
rfingers 7.12502
rthumb 19.7693 -65.2288
lclavicle -5.96354e-016 -4.77083e-015
lhumerus 39.8663 -45.4363 68.6599
lradius 142.026
lwrist 53.1731
lhand -24.0741 -27.2182
lfingers 7.12502
lthumb 2.40579 2.74799
rfemur 3.28949 -11.6739 19.3852
rtibia 31.501
rfoot -29.2383 -6.19141
rtoes -21.1636
lfemur -13.9467 -9.59943 -6.91516
ltibia 44.6352
lfoot -23.5893 -3.54683
ltoes -59.2894
411
root -1.03848 17.7596 5.33116 -8.71384 15.9004 -6.51228
lowerback 18.1623 2.72056 1.86415
upperback 4.15606 3.83915 -1.84144
thorax -5.42572 1.87224 -3.87707
lowerneck -18.6861 -1.63719 -3.55975
upperneck -14.6669 -1.73408 -7.08744
head -1.71451 -0.535857 -1.77284
rclavicle 5.14852e-014 -4.77083e-015
rhumerus 25.0081 0.30503 -60.6123
rradius 61.5282
rwrist -3.5902
rhand 0.336238 -38.6411
rfingers 7.12502
rthumb 25.9124 -66.8952
lclavicle 5.14852e-014 -4.77083e-015
lhumerus 39.0895 -45.8011 68.8489
lradius 142.04
lwrist 52.9025
lhand -24.6392 -27.8538
lfingers 7.12502
lthumb 1.85999 2.11784
rfemur 1.71685 -11.9333 19.4544
rtibia 32.9659
rfoot -29.5821 -6.0866
rtoes -21.1529
lfemur -15.3479 -9.60447 -6.83501
ltibia 45.4989
lfoot -23.5525 -3.63314
ltoes -59.299
412
root -1.04479 17.7276 5.23743 -8.06993 16.0492 -6.3953
lowerback 18.6201 2.89277 1.76807
upperback 4.7301 4.05531 -1.852
thorax -5.04262 1.99743 -3.88534
lowerneck -18.1815 -1.40388 -3.09962
upperneck -14.4496 -1.57084 -7.76383
head -1.72058 -0.474806 -2.06663
rclavicle 1.03368e-014 -1.59028e-015
rhumerus 23.4753 3.2377 -59.149
rradius 60.2834
rwrist -4.6261
rhand 5.34002 -39.4046
rfingers 7.12502
rthumb 30.6942 -66.8639
lclavicle 1.03368e-014 -1.59028e-015
lhumerus 38.3703 -46.1674 69.0246
lradius 142.007
lwrist 52.531
lhand -25.3401 -28.8006
lfingers 7.12502
lthumb 1.18306 1.1759
rfemur -0.000239524 -12.1704 19.4283
rtibia 34.3733
rfoot -29.8517 -5.95697
rtoes -21.1389
lfemur -16.8073 -9.50727 -6.86595
ltibia 46.2187
lfoot -23.5436 -3.67718
ltoes -59.3409
413
root -1.05519 17.7052 5.15509 -7.32625 16.1911 -6.19516
lowerback 18.8162 3.11694 1.4768
upperback 5.37348 4.30235 -1.8614
thorax -4.4588 2.14396 -3.76729
lowerneck -17.7769 -1.24232 -2.98722
upperneck -14.0565 -1.40084 -8.13879
head -1.64638 -0.402733 -2.19897
rclavicle -7.196e-014 2.22639e-014
rhumerus 21.8359 6.37313 -57.9694
rradius 59.4472
rwrist -3.95271
rhand 9.12338 -39.2426
rfingers 7.12502
rthumb 34.2944 -65.9605
lclavicle -7.196e-014 2.22639e-014
lhumerus 37.7355 -46.5947 69.2578
lradius 141.98
lwrist 52.3073
lhand -26.0317 -29.4976
lfingers 7.12502
lthumb 0.515175 0.481483
rfemur -1.64965 -12.3611 19.3747
rtibia 35.5604
rfoot -30.0529 -5.92092
rtoes -21.411
lfemur -18.1959 -9.38873 -6.94822
ltibia 46.743
lfoot -23.4919 -3.75347
ltoes -59.3277
414
root -1.06752 17.6932 5.08188 -6.63095 16.3498 -6.02735
lowerback 18.953 3.34743 1.1096
upperback 6.05859 4.54874 -1.81032
thorax -3.81264 2.2888 -3.53494
lowerneck -17.4616 -1.13107 -3.25763
upperneck -13.39 -1.1933 -8.27608
head -1.46226 -0.309481 -2.18028
rclavicle -6.36111e-014 1.90833e-014
rhumerus 20.1521 9.92051 -56.9309
rradius 59.0462
rwrist -2.50249
rhand 11.2366 -38.4689
rfingers 7.12502
rthumb 36.2983 -64.7116
lclavicle -6.36111e-014 1.90833e-014
lhumerus 36.9672 -47.1229 69.7675
lradius 141.937
lwrist 52.1832
lhand -26.491 -29.7153
lfingers 7.12502
lthumb 0.0715479 0.264435
rfemur -3.07244 -12.567 19.3447
rtibia 36.4386
rfoot -30.1601 -5.90593
rtoes -21.763
lfemur -19.3974 -9.23782 -6.97956
ltibia 47.0413
lfoot -23.3295 -3.92274
ltoes -59.253
415
root -1.07684 17.6954 5.01791 -5.98659 16.5146 -5.89207
lowerback 19.5158 3.46135 0.999745
upperback 6.4468 4.67349 -1.97101
thorax -3.67433 2.35984 -3.69328
lowerneck -17.0248 -0.917808 -3.26843
upperneck -12.3476 -0.882425 -8.48697
head -1.17017 -0.195489 -2.22358
rclavicle 8.11041e-014 -2.8625e-014
rhumerus 18.062 13.7968 -56.7972
rradius 58.8471
rwrist -1.10756
rhand 11.7745 -37.6658
rfingers 7.12502
rthumb 36.8074 -63.7799
lclavicle 8.11041e-014 -2.8625e-014
lhumerus 35.2905 -47.7364 70.5241
lradius 141.95
lwrist 52.116
lhand -26.7952 -30.0339
lfingers 7.12502
lthumb -0.222332 -0.0543189
rfemur -4.24485 -12.7777 19.3081
rtibia 36.975
rfoot -30.0796 -5.83578
rtoes -21.9579
lfemur -20.3996 -9.06656 -6.99848
ltibia 47.11
lfoot -23.0727 -4.06245
ltoes -59.2469
